<svg width="418" height="418" xmlns="http://www.w3.org/2000/svg">

 <g>
  <title>Layer 1</title>
  <g>
   <!--! Font Awesome Pro 6.3.0 by @fontawesome - https://fontawesome.com License - https://fontawesome.com/license (Commercial License) Copyright 2023 Fonticons, Inc. -->
   <path d="m241,33c0,-17.7 -14.3,-32 -32,-32s-32,14.3 -32,32l0,144l-144,0c-17.7,0 -32,14.3 -32,32s14.3,32 32,32l144,0l0,144c0,17.7 14.3,32 32,32s32,-14.3 32,-32l0,-144l144,0c17.7,0 32,-14.3 32,-32s-14.3,-32 -32,-32l-144,0l0,-144z"/>
  </g>
 </g>
</svg>